<svg id="svg15" clip-rule="evenodd" fill-rule="evenodd" stroke-linejoin="round" stroke-miterlimit="2" viewBox="0 0 64 64" xmlns="http://www.w3.org/2000/svg" xmlns:cc="http://creativecommons.org/ns#" xmlns:dc="http://purl.org/dc/elements/1.1/" xmlns:inkscape="http://www.inkscape.org/namespaces/inkscape" xmlns:rdf="http://www.w3.org/1999/02/22-rdf-syntax-ns#" xmlns:sodipodi="http://sodipodi.sourceforge.net/DTD/sodipodi-0.dtd" xmlns:svg="http://www.w3.org/2000/svg"><path id="path4" d="m32.000205 7.0001169c-13.797643 0-25.0000781 11.2024351-25.0000781 25.0000781s11.2024351 25.000078 25.0000781 25.000078 25.000078-11.202435 25.000078-25.000078-11.202435-25.0000781-25.000078-25.0000781zm0 2.0000062c12.69444 0 23.000072 10.3056319 23.000072 23.0000719s-10.305632 23.000072-23.000072 23.000072-23.0000719-10.305632-23.0000719-23.000072 10.3056319-23.0000719 23.0000719-23.0000719z" stroke-width=".8"/><path id="path8" d="m35.535511 27.836113c-4.285083 4.285083-8.560974 8.560974-10.207832 10.207831-.780649.780649-.78152 2.046918-.000001 2.828437l8.249455 8.249455c.744966.744966 1.827006 1.044943 2.849159.788642 1.022317-.254723 1.83571-1.028083 2.142596-2.03642l7.802092-25.634284c.325815-1.074262.02578-2.239795-.776948-3.022727-.804308-.783096-1.978327-1.052014-3.042472-.696283-6.50845 2.169196-19.995958 6.664894-26.542048 8.847363-1.070292.356655-1.850669 1.28324-2.018417 2.399602-.167042 1.115655.304926 2.231092 1.224058 2.88718l6.098976 4.356659c.716954.511892 1.685857.495084 2.383773-.04444zm-13.058622 7.547961c-1.18952-.848693-3.908353-2.79112-6.100553-4.356822-.30509-.218822-.462884-.590163-.407022-.96281.05602-.371069.315751-.681272.67257-.799632l26.542048-8.847363c.355241-.118522.746055-.02894 1.014158.232095.268103.261032.367696.65054.258801 1.008337 0 0-7.801385 25.633576-7.801385 25.633576-.102585.335823-.374007.593319-.713909.679097-.340772.08491-.702213-.0149-.950245-.262935l-8.249455-8.249455c1.646857-1.646858 5.922748-5.922749 10.207831-10.207832.746-.746.783695-1.942918.08768-2.735097-.696012-.79218-1.888416-.906948-2.723784-.263043z" stroke-width="1.109"/></svg>